<svg width="80" height="80" viewBox="0 0 80 80" fill="none" xmlns="http://www.w3.org/2000/svg">
<circle cx="40" cy="40" r="40" fill="#DB4453"/>
<path d="M49.8789 20.2569C49.8789 20.2569 45.0605 20.016 39.8937 25.4459C39.8011 25.5275 37.9515 23.7632 37.807 23.6298C36.7766 22.692 35.8129 21.6802 34.5564 21.0353C33.103 20.3311 31.5049 19.977 29.89 20.0012C27.251 20.0012 25.2496 20.5868 23.1925 22.1768C21.1639 23.7317 19.5424 25.7552 18.4668 28.0738C17.4977 30.2321 16.9999 32.5722 17.0064 34.9381C17.0064 34.9381 16.2948 45.0715 29.8456 55.3236L39.3007 61.4763" stroke="white" stroke-width="1.6" stroke-miterlimit="10"/>
<path d="M44.4668 58.7446C53.0398 52.6364 64.3889 44.0226 62.3615 31.921C62.3615 31.921 62.3615 25.2494 54.7522 21.3984" stroke="white" stroke-width="1.6" stroke-miterlimit="10"/>
<path d="M21.1699 40.9127L25.2099 40.7384L28.3604 35.5605L33.9497 45.8459L39.8356 35.6198L42.8044 40.6124H54.9319" stroke="white" stroke-width="1.6" stroke-miterlimit="10"/>
</svg>
