<svg width="80" height="80" viewBox="0 0 80 80" fill="none" xmlns="http://www.w3.org/2000/svg">
<circle cx="40" cy="40" r="40" fill="#4B89DC"/>
<path d="M23.6543 29.8585L21.622 29.0918L17.5996 31.079L19.46 34.8421L24.1335 32.5335" stroke="white" stroke-width="1.6" stroke-miterlimit="10"/>
<path d="M57.7285 30.2656L59.2112 28.6758H63.6959V32.8758H58.4839" stroke="white" stroke-width="1.6" stroke-miterlimit="10"/>
<path d="M59.2367 52.5615V58.0356H52.5703V52.5615" stroke="white" stroke-width="1.6" stroke-miterlimit="10"/>
<path d="M29.3095 52.2207L29.8958 57.6638L23.2688 58.3797L22.6797 52.9367" stroke="white" stroke-width="1.6" stroke-miterlimit="10"/>
<path d="M55.1859 44.9372C56.9357 44.9372 58.3542 43.5187 58.3542 41.7689C58.3542 40.0191 56.9357 38.6006 55.1859 38.6006C53.4361 38.6006 52.0176 40.0191 52.0176 41.7689C52.0176 43.5187 53.4361 44.9372 55.1859 44.9372Z" stroke="white" stroke-width="0.980935" stroke-miterlimit="10"/>
<path d="M26.7445 40.0713L28.4527 38.8311L28.2215 40.9198L30.1608 41.7682L28.2215 42.6167L28.4527 44.7082L26.7445 43.4651L25.0363 44.7082L25.2646 42.6167L23.3281 41.7682L25.2646 40.9198L25.0363 38.8311L26.7445 40.0713Z" stroke="white" stroke-width="0.930197" stroke-miterlimit="10"/>
<path d="M29.6667 24.5428L30.4982 27.6096L27.9219 29.7125L31.4538 29.0726L36.46 33.4445L33.8244 28.4863L39.6339 26.888L33.2409 26.9416L34.2698 24.4893L32.0796 25.7154L29.6667 24.5428Z" stroke="white" stroke-width="0.769527" stroke-miterlimit="10"/>
<path d="M58.9569 34.586L55.16 22.4004H27.3838L28.0744 26.6765L24.7849 30.5128L23.1895 34.8989" stroke="white" stroke-width="1.2" stroke-miterlimit="10"/>
<path d="M61.6081 45.4606L61.5377 36.5674H20.6738L21.3954 39.0817L20.7471 41.5735L21.8944 44.0174L20.6738 45.4606" stroke="white" stroke-width="1.6" stroke-miterlimit="10"/>
<path d="M62.9907 47.3047H19.2715L20.0523 49.1566L19.2715 51.0114H62.9907V47.3047Z" stroke="white" stroke-width="1.6" stroke-miterlimit="10"/>
</svg>
