<svg width="80" height="80" viewBox="0 0 80 80" fill="none" xmlns="http://www.w3.org/2000/svg">
<circle cx="40" cy="40" r="40" fill="#F6BB43"/>
<path d="M54.0013 40.0427L47.0684 34.0449L35.9043 46.9456" stroke="white" stroke-width="1.30876" stroke-miterlimit="10"/>
<path d="M52.0029 42.3545L42.8359 52.9475L38.4043 49.1137" stroke="white" stroke-width="1.30876" stroke-miterlimit="10"/>
<path d="M53.4295 34.2185C54.0529 34.2185 54.5583 33.7131 54.5583 33.0897C54.5583 32.4663 54.0529 31.9609 53.4295 31.9609C52.8061 31.9609 52.3008 32.4663 52.3008 33.0897C52.3008 33.7131 52.8061 34.2185 53.4295 34.2185Z" stroke="white" stroke-width="0.927177" stroke-miterlimit="10"/>
<path d="M56.8163 37.1521C57.4397 37.1521 57.945 36.6467 57.945 36.0233C57.945 35.3999 57.4397 34.8945 56.8163 34.8945C56.1929 34.8945 55.6875 35.3999 55.6875 36.0233C55.6875 36.6467 56.1929 37.1521 56.8163 37.1521Z" stroke="white" stroke-width="0.927177" stroke-miterlimit="10"/>
<path d="M50.0897 31.3308C50.7131 31.3308 51.2185 30.8254 51.2185 30.202C51.2185 29.5786 50.7131 29.0732 50.0897 29.0732C49.4663 29.0732 48.9609 29.5786 48.9609 30.202C48.9609 30.8254 49.4663 31.3308 50.0897 31.3308Z" stroke="white" stroke-width="0.927177" stroke-miterlimit="10"/>
<path d="M58.0077 32.5485C58.6311 32.5485 59.1364 32.0432 59.1364 31.4198C59.1364 30.7964 58.6311 30.291 58.0077 30.291C57.3843 30.291 56.8789 30.7964 56.8789 31.4198C56.8789 32.0432 57.3843 32.5485 58.0077 32.5485Z" stroke="white" stroke-width="0.927177" stroke-miterlimit="10"/>
<path d="M54.369 29.3972C54.9924 29.3972 55.4978 28.8918 55.4978 28.2684C55.4978 27.645 54.9924 27.1396 54.369 27.1396C53.7456 27.1396 53.2402 27.645 53.2402 28.2684C53.2402 28.8918 53.7456 29.3972 54.369 29.3972Z" stroke="white" stroke-width="0.927177" stroke-miterlimit="10"/>
<path d="M35.6385 54.8708C36.2619 54.8708 36.7673 54.3654 36.7673 53.742C36.7673 53.1186 36.2619 52.6133 35.6385 52.6133C35.0151 52.6133 34.5098 53.1186 34.5098 53.742C34.5098 54.3654 35.0151 54.8708 35.6385 54.8708Z" stroke="white" stroke-width="0.927177" stroke-miterlimit="10"/>
<path d="M32.2538 51.9392C32.8772 51.9392 33.3825 51.4338 33.3825 50.8104C33.3825 50.187 32.8772 49.6816 32.2538 49.6816C31.6304 49.6816 31.125 50.187 31.125 50.8104C31.125 51.4338 31.6304 51.9392 32.2538 51.9392Z" stroke="white" stroke-width="0.927177" stroke-miterlimit="10"/>
<path d="M38.9803 57.7605C39.6037 57.7605 40.1091 57.2551 40.1091 56.6317C40.1091 56.0083 39.6037 55.5029 38.9803 55.5029C38.3569 55.5029 37.8516 56.0083 37.8516 56.6317C37.8516 57.2551 38.3569 57.7605 38.9803 57.7605Z" stroke="white" stroke-width="0.927177" stroke-miterlimit="10"/>
<path d="M31.0604 56.5398C31.6838 56.5398 32.1892 56.0344 32.1892 55.411C32.1892 54.7876 31.6838 54.2822 31.0604 54.2822C30.437 54.2822 29.9316 54.7876 29.9316 55.411C29.9316 56.0344 30.437 56.5398 31.0604 56.5398Z" stroke="white" stroke-width="0.927177" stroke-miterlimit="10"/>
<path d="M34.701 59.6941C35.3244 59.6941 35.8298 59.1887 35.8298 58.5653C35.8298 57.9419 35.3244 57.4365 34.701 57.4365C34.0776 57.4365 33.5723 57.9419 33.5723 58.5653C33.5723 59.1887 34.0776 59.6941 34.701 59.6941Z" stroke="white" stroke-width="0.927177" stroke-miterlimit="10"/>
<path d="M46.4609 28.0851C46.4609 28.0851 48.6183 24.465 52.0246 23.7437C53.4785 23.2694 55.0348 23.2036 56.5236 23.5534C58.0123 23.9032 59.3764 24.6552 60.467 25.7274C61.7605 26.9639 62.6486 28.5636 63.0141 30.3153C63.3796 32.067 63.2053 33.8884 62.5141 35.5389C61.2764 37.6024 59.7965 39.5106 58.1059 41.2229L49.6302 51.0244" stroke="white" stroke-width="1.30876" stroke-miterlimit="10"/>
<path d="M47.207 53.8229L40.8819 61.1331C40.8819 61.1331 36.9913 66.6634 30.2121 63.4341C30.2121 63.4341 24.8688 60.7624 25.4666 54.6577C25.4666 54.6577 25.2328 52.1965 29.6343 47.5245L43.4868 31.5381" stroke="white" stroke-width="1.30876" stroke-miterlimit="10"/>
<path d="M36.313 22.9679H29.9378V16.7998H23.9768V22.9679H17.6016V28.9257H23.9768V35.5113H29.9378V28.9257H36.313V22.9679Z" stroke="white" stroke-width="1.25186" stroke-miterlimit="10"/>
</svg>
